<svg width="410" height="61" viewBox="0 0 410 61" fill="none" xmlns="http://www.w3.org/2000/svg">
<g filter="url(#filter0_d_0_260)">
<rect width="411" height="48" transform="translate(0 16)" fill="#242B32"/>
<path d="M30 37V47H48V37" stroke="#249AE3" stroke-linecap="round" stroke-linejoin="round"/>
<circle cx="39" cy="38" r="2.5" stroke="#249AE3"/>
<path d="M26 36L39 23L52 36" stroke="#249AE3" stroke-linecap="round" stroke-linejoin="round"/>
<g clip-path="url(#clip0_0_260)">
<path d="M117.491 24H107.145V28.5703H119.332C122.72 28.5703 125.477 31.3267 125.477 34.7148C125.477 37.509 123.503 39.9421 120.839 40.6204C120.849 40.4305 120.855 40.2394 120.855 40.0469C120.855 34.5587 116.413 30.0938 110.953 30.0938C105.479 30.0938 101 34.5733 101 40.0469C101 45.521 105.48 50 110.953 50C114.547 50 117.699 48.0656 119.435 45.1785C123.818 44.2618 127 40.3874 127 35.9209C127 35.1545 127 34.2752 127 33.5088C127 28.2801 122.719 24 117.491 24ZM116.285 27.0469H113.238V25.5234H116.285V27.0469ZM108.668 25.5234H111.715V27.0469H108.668V25.5234ZM119.332 27.0469H117.809V25.5304C120.113 25.621 122.17 26.692 123.571 28.3376C122.321 27.4979 120.859 27.0469 119.332 27.0469ZM110.953 48.4766C106.305 48.4766 102.523 44.695 102.523 40.0469C102.523 35.3987 106.305 31.6172 110.953 31.6172C115.573 31.6172 119.332 35.3987 119.332 40.0469C119.332 44.695 115.573 48.4766 110.953 48.4766ZM120.296 43.344C120.424 42.9796 120.531 42.6056 120.616 42.2233C121.654 42.0473 122.64 41.6606 123.517 41.0895C122.655 42.0817 121.552 42.8676 120.296 43.344Z" fill="#7F7F7F"/>
<path d="M110.953 37.7617C112.213 37.7617 113.238 36.7366 113.238 35.4766C113.238 34.2165 112.213 33.1914 110.953 33.1914C109.693 33.1914 108.668 34.2165 108.668 35.4766C108.668 36.7366 109.693 37.7617 110.953 37.7617ZM110.953 34.7148C111.373 34.7148 111.715 35.0566 111.715 35.4766C111.715 35.8966 111.373 36.2383 110.953 36.2383C110.533 36.2383 110.191 35.8966 110.191 35.4766C110.191 35.0566 110.533 34.7148 110.953 34.7148Z" fill="#7F7F7F"/>
<path d="M110.953 42.332C109.693 42.332 108.668 43.3572 108.668 44.6172C108.668 45.8772 109.693 46.9023 110.953 46.9023C112.213 46.9023 113.238 45.8772 113.238 44.6172C113.238 43.3572 112.213 42.332 110.953 42.332ZM110.953 45.3789C110.533 45.3789 110.191 45.0372 110.191 44.6172C110.191 44.1972 110.533 43.8555 110.953 43.8555C111.373 43.8555 111.715 44.1972 111.715 44.6172C111.715 45.0372 111.373 45.3789 110.953 45.3789Z" fill="#7F7F7F"/>
<path d="M106.383 37.7617C105.123 37.7617 104.098 38.7868 104.098 40.0469C104.098 41.3069 105.123 42.332 106.383 42.332C107.643 42.332 108.668 41.3069 108.668 40.0469C108.668 38.7868 107.643 37.7617 106.383 37.7617ZM106.383 40.8086C105.963 40.8086 105.621 40.4669 105.621 40.0469C105.621 39.6269 105.963 39.2852 106.383 39.2852C106.803 39.2852 107.145 39.6269 107.145 40.0469C107.145 40.4669 106.803 40.8086 106.383 40.8086Z" fill="#7F7F7F"/>
<path d="M115.524 37.7617C114.263 37.7617 113.238 38.7868 113.238 40.0469C113.238 41.3069 114.263 42.332 115.524 42.332C116.784 42.332 117.809 41.3069 117.809 40.0469C117.809 38.7868 116.784 37.7617 115.524 37.7617ZM115.524 40.8086C115.103 40.8086 114.762 40.4669 114.762 40.0469C114.762 39.6269 115.103 39.2852 115.524 39.2852C115.944 39.2852 116.285 39.6269 116.285 40.0469C116.285 40.4669 115.944 40.8086 115.524 40.8086Z" fill="#7F7F7F"/>
<path d="M110.191 39.2852H111.715V40.8086H110.191V39.2852Z" fill="#7F7F7F"/>
</g>
<path d="M313.292 31.749C311.901 27.912 308.439 25.1164 304.397 24.4391C304.33 24.4145 304.257 24.3957 304.176 24.3911C304.125 24.3883 304.071 24.3888 304.02 24.3866C303.519 24.3196 303.014 24.2777 302.5 24.2777C297.669 24.2777 293.311 27.3236 291.706 31.749C289.659 31.7729 288 33.446 288 35.5002C288 37.5536 289.659 39.2273 291.707 39.2511C293.312 43.6762 297.669 46.7223 302.5 46.7223C304.381 46.7223 306.186 46.2552 307.788 45.4306C307.421 45.1091 307.065 44.7563 306.748 44.377C305.442 44.9792 303.998 45.3195 302.5 45.3195C298.089 45.3195 294.13 42.436 292.871 38.3077L292.695 37.7292L292.097 37.8188C291.963 37.839 291.852 37.8475 291.751 37.8475C290.456 37.8475 289.403 36.7944 289.403 35.4994C289.403 34.205 290.456 33.1512 291.751 33.1512C291.852 33.1512 291.963 33.1608 292.098 33.1801L292.695 33.2683L292.871 32.6905C293.724 29.8918 295.821 27.6689 298.456 26.5256C297.867 27.8286 298.666 29.4342 299.998 30.0611C301.657 30.842 304.341 30.9432 305.473 29.2453C305.984 28.4801 305.53 27.5123 304.913 26.9887C304.048 26.2555 302.794 26.1514 301.767 26.5586C300.937 26.8883 301.298 28.2459 302.14 27.9121C302.751 27.6705 303.306 27.6522 303.892 27.9734C304.695 28.4151 303.955 28.9193 303.393 29.0808C302.347 29.3817 300.803 29.1363 299.985 28.4018C298.952 27.4747 300.282 26.4225 301.105 26.1346C301.998 25.8219 302.979 25.7527 303.923 25.7869C307.741 26.3303 311.007 29.0134 312.129 32.691L312.305 33.2688L312.902 33.1807C313.037 33.1609 313.148 33.1518 313.249 33.1518C314.544 33.1518 315.597 34.2051 315.597 35.5005C315.597 36.7945 314.544 37.8484 313.249 37.8484C313.148 37.8484 313.037 37.8391 312.903 37.8193L312.305 37.7302L312.129 38.3087C312.066 38.5138 311.992 38.7148 311.916 38.914C312.129 38.8639 312.35 38.8353 312.577 38.8353C313.077 38.8353 313.546 38.9606 313.958 39.1818C315.687 38.8487 317 37.3267 317 35.5005C317 33.446 315.341 31.7725 313.292 31.749Z" fill="#7F7F7F"/>
<path d="M299.537 35.0127C298.331 35.0127 298.331 36.8834 299.537 36.8834C300.743 36.8834 300.743 35.0127 299.537 35.0127Z" fill="#7F7F7F"/>
<path d="M305.462 34.8958C304.255 34.8958 304.255 36.7669 305.462 36.7669C306.668 36.7665 306.669 34.8958 305.462 34.8958Z" fill="#7F7F7F"/>
<path d="M302.5 41.5807C304.021 41.5807 305.259 40.3427 305.259 38.8217C305.259 38.4331 304.944 38.1201 304.557 38.1201C304.17 38.1201 303.856 38.4335 303.856 38.8217C303.856 39.5695 303.247 40.1775 302.5 40.1775C301.753 40.1775 301.144 39.5695 301.144 38.8217C301.144 38.4331 300.83 38.1201 300.442 38.1201C300.055 38.1201 299.741 38.4335 299.741 38.8217C299.74 40.3427 300.978 41.5807 302.5 41.5807Z" fill="#7F7F7F"/>
<path d="M310.56 40.1099C307.731 38.4868 303.853 43.035 310.56 46.4747C317.338 42.9983 313.302 38.5378 310.56 40.1099ZM310.56 44.8829C307.209 42.8958 308.148 41.1853 309.326 41.1853C309.878 41.1853 310.149 41.5565 310.56 41.9457C310.97 41.5575 311.242 41.1858 311.793 41.1858C312.831 41.1858 314.048 42.809 310.56 44.8829Z" fill="#7F7F7F"/>
<path d="M379 36C382.314 36 385 33.3137 385 30C385 26.6863 382.314 24 379 24C375.686 24 373 26.6863 373 30C373 33.3137 375.686 36 379 36Z" stroke="#868686" stroke-miterlimit="10"/>
<path d="M368.5 45C368.5 41.4101 371.41 38.5 375 38.5H383C386.59 38.5 389.5 41.4101 389.5 45V46.7132C389.459 46.7234 389.413 46.7344 389.364 46.7459C389.013 46.8272 388.451 46.9381 387.621 47.0499C385.96 47.2736 383.233 47.5 379 47.5C374.767 47.5 372.04 47.2736 370.379 47.0499C369.549 46.9381 368.987 46.8272 368.636 46.7459C368.587 46.7344 368.541 46.7234 368.5 46.7132V45Z" stroke="#868686"/>
</g>
<defs>
<filter id="filter0_d_0_260" x="-10" y="0" width="431" height="68" filterUnits="userSpaceOnUse" color-interpolation-filters="sRGB">
<feFlood flood-opacity="0" result="BackgroundImageFix"/>
<feColorMatrix in="SourceAlpha" type="matrix" values="0 0 0 0 0 0 0 0 0 0 0 0 0 0 0 0 0 0 127 0" result="hardAlpha"/>
<feOffset dy="-6"/>
<feGaussianBlur stdDeviation="5"/>
<feColorMatrix type="matrix" values="0 0 0 0 0 0 0 0 0 0 0 0 0 0 0 0 0 0 0.7 0"/>
<feBlend mode="normal" in2="BackgroundImageFix" result="effect1_dropShadow_0_260"/>
<feBlend mode="normal" in="SourceGraphic" in2="effect1_dropShadow_0_260" result="shape"/>
</filter>
<clipPath id="clip0_0_260">
<rect width="26" height="26" fill="white" transform="translate(101 24)"/>
</clipPath>
</defs>
</svg>
