<svg width="166" height="36" viewBox="0 0 166 36" fill="none" xmlns="http://www.w3.org/2000/svg">
<rect width="166" height="36" rx="5" fill="url(#paint0_linear_0_18)"/>
<g opacity="0.8">
<path d="M52 26.5V11L63.62 18.5L52 26.5Z" fill="#FF6212" stroke="black" stroke-linejoin="round"/>
<path d="M73.996 25V19.816C74.266 19.87 74.59 19.888 74.968 19.888C77.038 19.888 80.206 19.042 80.206 15.244C80.206 13.966 79.702 12.85 78.874 12.148C77.992 11.392 76.678 11.05 74.932 11.05C73.402 11.05 72.214 11.176 71.35 11.338V25H73.996ZM73.996 13.228C74.23 13.174 74.608 13.12 75.148 13.12C76.624 13.12 77.56 13.894 77.56 15.37C77.56 16.864 76.588 17.8 74.932 17.8C74.536 17.8 74.248 17.782 73.996 17.728V13.228ZM81.999 10.528V25H84.663V10.528H81.999ZM87.6195 17.35C88.2675 16.954 89.1675 16.666 90.0855 16.666C91.5435 16.666 91.8855 17.422 91.8855 18.412C88.6995 18.412 86.4135 19.618 86.4135 22.192C86.4135 23.812 87.5655 25.198 89.4195 25.198C90.5355 25.198 91.5075 24.748 92.0835 23.956H92.1375L92.2995 25H94.6935C94.5855 24.388 94.5495 23.506 94.5495 22.624V18.952C94.5495 16.756 93.7035 14.776 90.5895 14.776C89.0235 14.776 87.7815 15.226 87.1155 15.622L87.6195 17.35ZM91.9575 21.562C91.9575 22.84 90.9135 23.29 90.2835 23.29C89.6175 23.29 89.0235 22.876 89.0235 21.922C89.0235 20.464 90.5175 20.122 91.9575 20.122V21.562ZM101.189 20.212C101.045 20.842 100.883 21.544 100.775 22.084H100.721C100.595 21.526 100.415 20.824 100.253 20.212L98.7768 14.974H95.8608L99.2268 24.19C99.2988 24.388 99.3348 24.532 99.3348 24.64C99.3348 24.838 98.8848 25.864 98.0028 26.494C97.5348 26.818 97.0308 27.106 96.5988 27.232L97.2648 29.482C97.8588 29.374 98.8848 29.014 99.8568 28.078C100.991 26.944 101.837 25.18 102.953 21.94L105.221 14.974H102.449L101.189 20.212Z" fill="black"/>
</g>
<defs>
<linearGradient id="paint0_linear_0_18" x1="83" y1="0" x2="83" y2="36" gradientUnits="userSpaceOnUse">
<stop stop-color="#FF7732"/>
<stop offset="1" stop-color="#FF6212"/>
</linearGradient>
</defs>
</svg>
