<svg width="166" height="36" viewBox="0 0 166 36" fill="none" xmlns="http://www.w3.org/2000/svg">
<rect width="166" height="36" rx="5" fill="white"/>
<g clip-path="url(#clip0_0_8)">
<path d="M34.7248 20.6152V25.7734C34.7248 26.1827 34.3898 26.5156 33.9781 26.5156H19.3431C18.9314 26.5156 18.5964 26.1827 18.5964 25.7734V20.6152H17.103V25.7734C17.103 27.0012 18.1079 28 19.3431 28H33.9781C35.2133 28 36.2182 27.0012 36.2182 25.7734V20.6152H34.7248Z" fill="black"/>
<path d="M30.2447 17.7473L27.4073 20.5676V9H25.9139V20.5676L23.0765 17.7473L22.0206 18.7969L26.6606 23.409L31.3007 18.7969L30.2447 17.7473Z" fill="black"/>
</g>
<path d="M50.347 22.958C50.893 23.028 51.691 23.098 52.685 23.098C54.561 23.098 56.059 22.664 57.039 21.782C57.865 21.04 58.663 19.696 58.663 17.386C58.663 15.44 58.061 14.11 57.039 13.27C56.143 12.528 54.925 12.15 53.133 12.15C52.083 12.15 51.103 12.234 50.347 12.374V22.958ZM52.405 13.858C52.629 13.816 52.951 13.774 53.385 13.774C55.303 13.774 56.493 14.978 56.493 17.414C56.493 20.242 55.177 21.46 53.203 21.446C52.923 21.446 52.615 21.446 52.405 21.404V13.858ZM63.3678 15.034C61.2538 15.034 59.6718 16.518 59.6718 19.136C59.6718 21.67 61.1838 23.154 63.2838 23.154C65.0198 23.154 66.9238 22.006 66.9238 19.038C66.9238 16.672 65.5518 15.034 63.3678 15.034ZM64.8238 19.08C64.8238 20.466 64.2918 21.628 63.3118 21.628C62.3038 21.628 61.7718 20.48 61.7718 19.094C61.7718 17.904 62.1778 16.56 63.3258 16.56C64.3898 16.56 64.8238 17.862 64.8238 19.08ZM75.8106 18.548C75.6286 19.444 75.4746 20.284 75.3766 21.11H75.3346C75.1946 20.27 75.0126 19.444 74.7886 18.548L73.9626 15.202H72.3246L71.4566 18.646C71.2746 19.416 71.0506 20.284 70.9106 21.11H70.8686C70.7566 20.284 70.6026 19.444 70.4486 18.618L69.7906 15.202H67.6486L69.8186 23H71.6946L72.5486 20.018C72.7586 19.276 72.9266 18.506 73.0666 17.568H73.0946C73.2486 18.506 73.4026 19.248 73.5986 20.018L74.3826 23H76.2586L78.5406 15.202H76.5106L75.8106 18.548ZM81.4909 16.266L81.3929 15.216H79.6009C79.6289 15.902 79.6569 16.644 79.6569 17.554V23H81.7289V18.366C81.7289 17.176 82.4989 16.742 83.0589 16.742C83.9409 16.742 84.2489 17.498 84.2489 18.45V23H86.3209V18.226C86.3209 16.042 85.2149 15.048 83.7869 15.048C82.6529 15.048 81.8829 15.692 81.5329 16.266H81.4909ZM88.1745 11.744V23H90.2465V11.744H88.1745ZM95.36 15.034C93.246 15.034 91.664 16.518 91.664 19.136C91.664 21.67 93.176 23.154 95.276 23.154C97.012 23.154 98.916 22.006 98.916 19.038C98.916 16.672 97.544 15.034 95.36 15.034ZM96.816 19.08C96.816 20.466 96.284 21.628 95.304 21.628C94.296 21.628 93.764 20.48 93.764 19.094C93.764 17.904 94.17 16.56 95.318 16.56C96.382 16.56 96.816 17.862 96.816 19.08ZM100.845 17.05C101.349 16.742 102.049 16.518 102.763 16.518C103.897 16.518 104.163 17.106 104.163 17.876C101.685 17.876 99.9068 18.814 99.9068 20.816C99.9068 22.076 100.803 23.154 102.245 23.154C103.113 23.154 103.869 22.804 104.317 22.188H104.359L104.485 23H106.347C106.263 22.524 106.235 21.838 106.235 21.152V18.296C106.235 16.588 105.577 15.048 103.155 15.048C101.937 15.048 100.971 15.398 100.453 15.706L100.845 17.05ZM104.219 20.326C104.219 21.32 103.407 21.67 102.917 21.67C102.399 21.67 101.937 21.348 101.937 20.606C101.937 19.472 103.099 19.206 104.219 19.206V20.326ZM112.715 11.744V15.958H112.687C112.379 15.426 111.721 15.048 110.811 15.048C109.131 15.048 107.661 16.504 107.661 19.164C107.661 21.53 108.921 23.154 110.685 23.154C111.637 23.154 112.477 22.664 112.883 21.894H112.925L113.023 23H114.843C114.815 22.426 114.787 21.558 114.787 20.774V11.744H112.715ZM112.715 19.808C112.715 21.04 111.931 21.488 111.315 21.488C110.335 21.488 109.747 20.55 109.747 19.136C109.747 17.778 110.279 16.686 111.343 16.686C112.029 16.686 112.715 17.246 112.715 18.38V19.808ZM119.324 22.538C119.828 22.846 120.906 23.14 121.97 23.14C124.476 23.14 125.89 21.768 125.89 19.892C125.89 18.478 125.12 17.484 123.398 16.714C122.082 16.112 121.55 15.762 121.55 14.992C121.55 14.39 122.04 13.802 123.132 13.802C124.014 13.802 124.672 14.068 125.05 14.264L125.484 12.57C124.98 12.318 124.196 12.08 123.174 12.08C120.85 12.08 119.464 13.438 119.464 15.202C119.464 16.602 120.472 17.61 122.096 18.31C123.286 18.828 123.804 19.29 123.804 20.06C123.804 20.858 123.202 21.404 122.054 21.404C121.186 21.404 120.29 21.138 119.73 20.802L119.324 22.538ZM131.908 12.416H130.172L127.596 13.732L128.044 15.216L129.864 14.264H129.892V23H131.908V12.416ZM136.476 17.834C137.232 17.834 137.708 17.274 137.708 16.532C137.708 15.762 137.204 15.23 136.476 15.23C135.762 15.23 135.244 15.79 135.244 16.532C135.244 17.246 135.706 17.834 136.476 17.834ZM136.476 23.154C137.232 23.154 137.708 22.608 137.708 21.852C137.708 21.082 137.204 20.55 136.476 20.55C135.762 20.55 135.244 21.11 135.244 21.852C135.244 22.566 135.706 23.154 136.476 23.154ZM141.355 21.264V18.268H144.869V16.574H141.355V13.97H145.079V12.234H139.283V23H145.303V21.264H141.355ZM147.164 14.46C147.57 14.208 148.284 13.886 149.012 13.886C149.992 13.886 150.482 14.432 150.482 15.174C150.482 16.196 149.418 16.658 148.592 16.658H147.92V18.114H148.634C149.768 18.114 150.804 18.674 150.804 19.864C150.804 20.732 150.174 21.516 148.9 21.516C148.088 21.516 147.234 21.194 146.842 20.942L146.38 22.51C146.912 22.86 147.92 23.154 149.04 23.154C151.504 23.154 152.918 21.726 152.918 19.962C152.918 18.52 151.938 17.568 150.762 17.302V17.274C151.924 16.84 152.582 15.93 152.582 14.838C152.582 13.438 151.518 12.248 149.488 12.248C148.354 12.248 147.276 12.612 146.73 12.976L147.164 14.46Z" fill="black"/>
<defs>
<clipPath id="clip0_0_8">
<rect width="19.1152" height="19" fill="white" transform="translate(17.103 9)"/>
</clipPath>
</defs>
</svg>
