<svg width="29" height="29" viewBox="0 0 29 29" fill="none" xmlns="http://www.w3.org/2000/svg">
<path d="M14.5 0C6.49185 0 0 6.49185 0 14.5C0.00900403 22.5044 6.49559 28.991 14.5 29C22.5082 29 29 22.5082 29 14.5C29 6.49185 22.5082 0 14.5 0ZM14.5 28.0645C7.00853 28.0645 0.935484 21.9915 0.935484 14.5C0.94402 7.01204 7.01204 0.94402 14.5 0.935484C21.9915 0.935484 28.0645 7.00853 28.0645 14.5C28.0645 21.9915 21.9915 28.0645 14.5 28.0645Z" fill="white"/>
<path d="M23.3871 14.0323H14.9677V5.61292C14.9677 5.35461 14.7583 5.14518 14.5 5.14518C14.2417 5.14518 14.0323 5.35461 14.0323 5.61292V14.0323H5.6129C5.35459 14.0323 5.14516 14.2417 5.14516 14.5C5.14516 14.7583 5.35459 14.9678 5.6129 14.9678H14.0323V23.3871C14.0323 23.6454 14.2417 23.8549 14.5 23.8549C14.7583 23.8549 14.9677 23.6454 14.9677 23.3871V14.9678H23.3871C23.6454 14.9678 23.8548 14.7583 23.8548 14.5C23.8548 14.2417 23.6454 14.0323 23.3871 14.0323Z" fill="white"/>
</svg>
