<svg width="29" height="29" viewBox="0 0 29 29" fill="none" xmlns="http://www.w3.org/2000/svg">
<path d="M25.2922 10.749C23.901 6.91195 20.4395 4.11638 16.3967 3.43914C16.3296 3.41451 16.2574 3.39569 16.176 3.39105C16.1254 3.38833 16.0707 3.38885 16.0197 3.38657C15.5191 3.31958 15.0136 3.27774 14.4996 3.27774C9.66919 3.27774 5.3112 6.32362 3.70649 10.749C1.6589 10.7729 0 12.446 0 14.5002C0 16.5536 1.6589 18.2273 3.70693 18.2511C5.31164 22.6762 9.66919 25.7223 14.5 25.7223C16.3805 25.7223 18.1863 25.2552 19.7884 24.4306C19.4208 24.1091 19.0648 23.7563 18.7483 23.377C17.4417 23.9792 15.9982 24.3195 14.4996 24.3195C10.0888 24.3195 6.12969 21.436 4.8711 17.3077L4.6947 16.7292L4.09717 16.8188C3.96283 16.839 3.85223 16.8475 3.75105 16.8475C2.45614 16.8475 1.40301 15.7944 1.40301 14.4994C1.40301 13.205 2.45614 12.1512 3.75105 12.1512C3.85223 12.1512 3.96283 12.1608 4.09805 12.1801L4.69514 12.2683L4.8711 11.6905C5.72431 8.89182 7.82065 6.66893 10.4557 5.52564C9.86736 6.82857 10.6661 8.43423 11.9975 9.0611C13.6569 9.84201 16.3412 9.94319 17.4732 8.24532C17.9835 7.48007 17.5304 6.5123 16.9134 5.98867C16.0484 5.25548 14.7938 5.15136 13.7673 5.55858C12.9365 5.8883 13.2983 7.24594 14.1405 6.9121C14.7508 6.67054 15.3061 6.65216 15.8916 6.97343C16.695 7.41514 15.9548 7.91928 15.3933 8.08076C14.347 8.38165 12.8031 8.13627 11.9848 7.40175C10.9523 6.47473 12.2823 5.42247 13.1053 5.13459C13.9981 4.82186 14.9788 4.75266 15.923 4.78685C19.7405 5.33026 23.0074 8.0134 24.1285 11.691L24.3049 12.2688L24.9022 12.1807C25.0365 12.1609 25.1475 12.1518 25.2488 12.1518C26.5436 12.1518 27.5968 13.2051 27.5968 14.5005C27.5968 15.7945 26.5437 16.8484 25.2488 16.8484C25.1475 16.8484 25.0365 16.8391 24.9031 16.8193L24.3049 16.7302L24.1285 17.3087C24.0658 17.5138 23.9915 17.7148 23.9158 17.914C24.1285 17.8639 24.3496 17.8353 24.5772 17.8353C25.0768 17.8353 25.5461 17.9606 25.9579 18.1818C27.6872 17.8487 29 16.3267 29 14.5005C28.9996 12.446 27.3407 10.7725 25.2922 10.749Z" fill="#7F7F7F"/>
<path d="M11.5368 14.0127C10.3305 14.0127 10.3305 15.8834 11.5368 15.8834C12.743 15.8834 12.7434 14.0127 11.5368 14.0127Z" fill="#7F7F7F"/>
<path d="M17.4619 13.8958C16.2552 13.8958 16.2552 15.7669 17.4619 15.7669C18.6681 15.7665 18.6686 13.8958 17.4619 13.8958Z" fill="#7F7F7F"/>
<path d="M14.4996 20.5807C16.0207 20.5807 17.2591 19.3427 17.2591 17.8217C17.2591 17.4331 16.9444 17.1201 16.557 17.1201C16.1701 17.1201 15.8559 17.4335 15.8559 17.8217C15.8559 18.5695 15.2474 19.1775 14.5001 19.1775C13.7528 19.1775 13.1438 18.5695 13.1438 17.8217C13.1438 17.4331 12.8298 17.1201 12.4424 17.1201C12.0548 17.1201 11.7408 17.4335 11.7408 17.8217C11.7404 19.3427 12.9784 20.5807 14.4996 20.5807Z" fill="#7F7F7F"/>
<path d="M22.5599 19.1099C19.7305 17.4868 15.8526 22.035 22.5599 25.4747C29.3375 21.9983 25.3024 17.5378 22.5599 19.1099ZM22.5599 23.8829C19.2094 21.8958 20.1478 20.1853 21.3263 20.1853C21.8775 20.1853 22.1493 20.5565 22.5599 20.9457C22.9696 20.5575 23.2418 20.1858 23.7934 20.1858C24.8314 20.1858 26.0475 21.809 22.5599 23.8829Z" fill="#7F7F7F"/>
</svg>
