<svg width="22" height="25" viewBox="0 0 22 25" fill="none" xmlns="http://www.w3.org/2000/svg">
<path d="M11 13C14.3137 13 17 10.3137 17 7C17 3.68629 14.3137 1 11 1C7.68629 1 5 3.68629 5 7C5 10.3137 7.68629 13 11 13Z" stroke="#868686" stroke-miterlimit="10"/>
<path d="M0.5 22C0.5 18.4101 3.41015 15.5 7 15.5H15C18.5899 15.5 21.5 18.4101 21.5 22V23.7132C21.4587 23.7234 21.4133 23.7344 21.3635 23.7459C21.0134 23.8272 20.4509 23.9381 19.6208 24.0499C17.96 24.2736 15.2329 24.5 11 24.5C6.76711 24.5 4.03999 24.2736 2.37924 24.0499C1.5491 23.9381 0.986574 23.8272 0.636486 23.7459C0.586738 23.7344 0.541295 23.7234 0.5 23.7132V22Z" stroke="#868686"/>
</svg>
