<svg width="26" height="26" viewBox="0 0 26 26" fill="none" xmlns="http://www.w3.org/2000/svg">
<g clip-path="url(#clip0_0_265)">
<path d="M16.4912 0H6.14454V4.57031H18.332C21.7202 4.57031 24.4766 7.32672 24.4766 10.7148C24.4766 13.509 22.5034 15.9421 19.8386 16.6204C19.8494 16.4305 19.8555 16.2394 19.8555 16.0469C19.8555 10.5587 15.4133 6.09375 9.95313 6.09375C4.47901 6.09375 0 10.5733 0 16.0469C0 21.521 4.47962 26 9.95313 26C13.5469 26 16.6995 24.0656 18.4349 21.1785C22.8181 20.2618 26 16.3874 26 11.9209C26 11.1545 26 10.2752 26 9.50879C26 4.28015 21.7191 0 16.4912 0ZM15.2852 3.04688H12.2383V1.52344H15.2852V3.04688ZM7.66797 1.52344H10.7149V3.04688H7.66797V1.52344ZM18.332 3.04688H16.8086V1.53045C19.1129 1.62104 21.1697 2.69202 22.5714 4.33763C21.3214 3.49786 19.8585 3.04688 18.332 3.04688ZM9.95313 24.4766C5.30497 24.4766 1.52344 20.695 1.52344 16.0469C1.52344 11.3987 5.30497 7.61719 9.95313 7.61719C14.5733 7.61719 18.332 11.3987 18.332 16.0469C18.332 20.695 14.5733 24.4766 9.95313 24.4766ZM19.2963 19.344C19.4239 18.9796 19.5312 18.6056 19.6164 18.2233C20.6544 18.0473 21.6404 17.6606 22.5172 17.0895C21.6554 18.0817 20.5522 18.8676 19.2963 19.344Z" fill="#7F7F7F"/>
<path d="M9.95313 13.7617C11.2132 13.7617 12.2383 12.7366 12.2383 11.4766C12.2383 10.2165 11.2132 9.19141 9.95313 9.19141C8.69309 9.19141 7.66797 10.2165 7.66797 11.4766C7.66797 12.7366 8.69309 13.7617 9.95313 13.7617ZM9.95313 10.7148C10.3731 10.7148 10.7148 11.0566 10.7148 11.4766C10.7148 11.8966 10.3731 12.2383 9.95313 12.2383C9.53312 12.2383 9.19141 11.8966 9.19141 11.4766C9.19141 11.0566 9.53312 10.7148 9.95313 10.7148Z" fill="#7F7F7F"/>
<path d="M9.95313 18.332C8.69309 18.332 7.66797 19.3572 7.66797 20.6172C7.66797 21.8772 8.69309 22.9023 9.95313 22.9023C11.2132 22.9023 12.2383 21.8772 12.2383 20.6172C12.2383 19.3572 11.2132 18.332 9.95313 18.332ZM9.95313 21.3789C9.53312 21.3789 9.19141 21.0372 9.19141 20.6172C9.19141 20.1972 9.53312 19.8555 9.95313 19.8555C10.3731 19.8555 10.7148 20.1972 10.7148 20.6172C10.7148 21.0372 10.3731 21.3789 9.95313 21.3789Z" fill="#7F7F7F"/>
<path d="M5.38287 13.7617C4.12284 13.7617 3.09772 14.7868 3.09772 16.0469C3.09772 17.3069 4.12284 18.332 5.38287 18.332C6.64291 18.332 7.66803 17.3069 7.66803 16.0469C7.66803 14.7868 6.64291 13.7617 5.38287 13.7617ZM5.38287 16.8086C4.96286 16.8086 4.62116 16.4669 4.62116 16.0469C4.62116 15.6269 4.96286 15.2852 5.38287 15.2852C5.80289 15.2852 6.14459 15.6269 6.14459 16.0469C6.14459 16.4669 5.80289 16.8086 5.38287 16.8086Z" fill="#7F7F7F"/>
<path d="M14.5235 13.7617C13.2635 13.7617 12.2383 14.7868 12.2383 16.0469C12.2383 17.3069 13.2635 18.332 14.5235 18.332C15.7835 18.332 16.8087 17.3069 16.8087 16.0469C16.8087 14.7868 15.7835 13.7617 14.5235 13.7617ZM14.5235 16.8086C14.1035 16.8086 13.7618 16.4669 13.7618 16.0469C13.7618 15.6269 14.1035 15.2852 14.5235 15.2852C14.9435 15.2852 15.2852 15.6269 15.2852 16.0469C15.2852 16.4669 14.9435 16.8086 14.5235 16.8086Z" fill="#7F7F7F"/>
<path d="M9.19141 15.2852H10.7148V16.8086H9.19141V15.2852Z" fill="#7F7F7F"/>
</g>
<defs>
<clipPath id="clip0_0_265">
<rect width="26" height="26" fill="white"/>
</clipPath>
</defs>
</svg>
