<svg width="26" height="26" viewBox="0 0 26 26" fill="none" xmlns="http://www.w3.org/2000/svg">
<g clip-path="url(#clip0_0_35)">
<path d="M24.0872 4.33327C24.0872 6.27783 22.511 7.85423 20.5664 7.85423C18.6218 7.85423 17.0456 6.27783 17.0456 4.33327C17.0456 2.3889 18.6218 0.8125 20.5664 0.8125C22.511 0.8125 24.0872 2.3889 24.0872 4.33327Z" fill="white"/>
<path d="M20.5664 8.66673C18.1765 8.66673 16.2331 6.72316 16.2331 4.33327C16.2331 1.94357 18.1765 0 20.5664 0C22.9563 0 24.8997 1.94357 24.8997 4.33327C24.8997 6.72316 22.9563 8.66673 20.5664 8.66673ZM20.5664 1.625C19.0725 1.625 17.8581 2.84058 17.8581 4.33327C17.8581 5.82616 19.0725 7.04173 20.5664 7.04173C22.0603 7.04173 23.2747 5.82616 23.2747 4.33327C23.2747 2.84058 22.0603 1.625 20.5664 1.625Z" fill="white"/>
<path d="M24.0872 21.6668C24.0872 23.6111 22.511 25.1875 20.5664 25.1875C18.6218 25.1875 17.0456 23.6111 17.0456 21.6668C17.0456 19.7222 18.6218 18.1458 20.5664 18.1458C22.511 18.1458 24.0872 19.7222 24.0872 21.6668Z" fill="white"/>
<path d="M20.5664 26C18.1765 26 16.2331 24.0565 16.2331 21.6668C16.2331 19.2769 18.1765 17.3333 20.5664 17.3333C22.9563 17.3333 24.8997 19.2769 24.8997 21.6668C24.8997 24.0565 22.9563 26 20.5664 26ZM20.5664 18.9583C19.0725 18.9583 17.8581 20.1739 17.8581 21.6668C17.8581 23.1595 19.0725 24.375 20.5664 24.375C22.0603 24.375 23.2747 23.1595 23.2747 21.6668C23.2747 20.1739 22.0603 18.9583 20.5664 18.9583Z" fill="white"/>
<path d="M8.92064 13C8.92064 14.9445 7.34424 16.5207 5.39967 16.5207C3.45531 16.5207 1.87891 14.9445 1.87891 13C1.87891 11.0554 3.45531 9.4792 5.39967 9.4792C7.34424 9.4792 8.92064 11.0554 8.92064 13Z" fill="white"/>
<path d="M5.39967 17.3332C3.00998 17.3332 1.06641 15.3899 1.06641 13C1.06641 10.6101 3.00998 8.6667 5.39967 8.6667C7.78957 8.6667 9.73314 10.6101 9.73314 13C9.73314 15.3899 7.78957 17.3332 5.39967 17.3332ZM5.39967 10.2917C3.90579 10.2917 2.69141 11.5071 2.69141 13C2.69141 14.4929 3.90579 15.7082 5.39967 15.7082C6.89375 15.7082 8.10814 14.4929 8.10814 13C8.10814 11.5071 6.89375 10.2917 5.39967 10.2917Z" fill="white"/>
<path d="M7.95758 12.4801C7.58049 12.4801 7.21431 12.2839 7.01496 11.933C6.71919 11.4141 6.90129 10.7521 7.42021 10.4552L17.4723 4.72443C17.9912 4.42649 18.6532 4.60859 18.9501 5.12949C19.2459 5.64842 19.0638 6.31036 18.5449 6.60731L8.49257 12.3381C8.32356 12.4345 8.13948 12.4801 7.95758 12.4801Z" fill="white"/>
<path d="M18.0087 21.4176C17.8266 21.4176 17.6425 21.372 17.4735 21.2756L7.42119 15.5448C6.90227 15.2491 6.72037 14.5871 7.01613 14.067C7.31071 13.5471 7.97364 13.364 8.49375 13.6619L18.5461 19.3927C19.065 19.6885 19.2469 20.3504 18.9511 20.8705C18.7508 21.2214 18.3846 21.4176 18.0087 21.4176Z" fill="white"/>
</g>
<defs>
<clipPath id="clip0_0_35">
<rect width="26" height="26" fill="white"/>
</clipPath>
</defs>
</svg>
