<svg width="57" height="57" viewBox="0 0 57 57" fill="none" xmlns="http://www.w3.org/2000/svg">
<rect x="52.4758" y="52.4757" width="47.9524" height="47.9524" rx="23.9762" transform="rotate(180 52.4758 52.4757)" fill="url(#paint0_linear_0_285)"/>
<g filter="url(#filter0_f_0_285)">
<rect x="52.476" y="52.4761" width="47.9524" height="47.9524" rx="23.9762" transform="rotate(180 52.476 52.4761)" fill="url(#paint1_linear_0_285)"/>
</g>
<path opacity="0.5" d="M14.1057 41.199C14.3937 41.375 15.0097 41.543 15.6177 41.543C17.0497 41.543 17.8577 40.759 17.8577 39.687C17.8577 38.879 17.4177 38.311 16.4337 37.871C15.6817 37.527 15.3777 37.327 15.3777 36.887C15.3777 36.543 15.6577 36.207 16.2817 36.207C16.7857 36.207 17.1617 36.359 17.3777 36.471L17.6257 35.503C17.3377 35.359 16.8897 35.223 16.3057 35.223C14.9777 35.223 14.1857 35.999 14.1857 37.007C14.1857 37.807 14.7617 38.383 15.6897 38.783C16.3697 39.079 16.6657 39.343 16.6657 39.783C16.6657 40.239 16.3217 40.551 15.6657 40.551C15.1697 40.551 14.6577 40.399 14.3377 40.207L14.1057 41.199ZM22.0406 35.311V37.767H19.9446V35.311H18.7606V41.463H19.9446V38.815H22.0406V41.463H23.2246V35.311H22.0406ZM26.7446 35.215C25.1366 35.215 24.1206 36.567 24.1206 38.407C24.1206 40.191 25.0406 41.551 26.6646 41.551C28.1926 41.551 29.2806 40.455 29.2806 38.311C29.2806 36.671 28.4486 35.215 26.7446 35.215ZM26.7126 36.183C27.6166 36.183 28.0406 37.231 28.0406 38.359C28.0406 39.599 27.5846 40.583 26.7046 40.583C25.8326 40.583 25.3606 39.591 25.3606 38.383C25.3606 37.255 25.7846 36.183 26.7126 36.183ZM30.1824 41.463H31.3584V38.967H31.7584C32.3184 38.967 32.5664 39.215 32.7264 40.007C32.8704 40.751 33.0224 41.287 33.1104 41.463H34.3264C34.2064 41.231 34.0464 40.495 33.8704 39.767C33.7264 39.143 33.4864 38.727 33.0544 38.559V38.535C33.6304 38.311 34.1104 37.759 34.1104 37.007C34.1104 35.359 32.5424 35.263 31.7664 35.263C31.1664 35.263 30.5904 35.319 30.1824 35.391V41.463ZM31.3584 36.215C31.4544 36.183 31.6384 36.167 31.9024 36.167C32.3344 36.167 32.9264 36.319 32.9264 37.111C32.9264 37.695 32.5184 38.087 31.8464 38.087H31.3584V36.215ZM34.6005 35.311V36.335H36.1125V41.463H37.2965V36.335H38.8165V35.311H34.6005ZM39.2386 41.199C39.5266 41.375 40.1426 41.543 40.7506 41.543C42.1826 41.543 42.9906 40.759 42.9906 39.687C42.9906 38.879 42.5506 38.311 41.5666 37.871C40.8146 37.527 40.5106 37.327 40.5106 36.887C40.5106 36.543 40.7906 36.207 41.4146 36.207C41.9186 36.207 42.2946 36.359 42.5106 36.471L42.7586 35.503C42.4706 35.359 42.0226 35.223 41.4386 35.223C40.1106 35.223 39.3186 35.999 39.3186 37.007C39.3186 37.807 39.8946 38.383 40.8226 38.783C41.5026 39.079 41.7986 39.343 41.7986 39.783C41.7986 40.239 41.4546 40.551 40.7986 40.551C40.3026 40.551 39.7906 40.399 39.4706 40.207L39.2386 41.199Z" fill="white"/>
<path opacity="0.5" d="M27.7537 12.7963L20.1385 23.3963H26.9922L26.2307 30.463L33.8458 19.863H26.9922L27.7537 12.7963Z" stroke="white" stroke-width="1.5" stroke-linecap="round" stroke-linejoin="round"/>
<defs>
<filter id="filter0_f_0_285" x="0.523621" y="0.523773" width="55.9524" height="55.9524" filterUnits="userSpaceOnUse" color-interpolation-filters="sRGB">
<feFlood flood-opacity="0" result="BackgroundImageFix"/>
<feBlend mode="normal" in="SourceGraphic" in2="BackgroundImageFix" result="shape"/>
<feGaussianBlur stdDeviation="2" result="effect1_foregroundBlur_0_285"/>
</filter>
<linearGradient id="paint0_linear_0_285" x1="92.0365" y1="94.4341" x2="62.0662" y2="57.8704" gradientUnits="userSpaceOnUse">
<stop stop-color="#FF7732" stop-opacity="0.88"/>
<stop offset="1" stop-color="#FF6212"/>
</linearGradient>
<linearGradient id="paint1_linear_0_285" x1="92.0367" y1="94.4345" x2="62.0665" y2="57.8708" gradientUnits="userSpaceOnUse">
<stop stop-color="#2F353A"/>
<stop offset="1" stop-color="#1C1F22"/>
</linearGradient>
</defs>
</svg>
